<svg width="96" height="96" viewBox="0 0 96 96" fill="none" xmlns="http://www.w3.org/2000/svg">
<g id="Group 9">
<circle id="Oval Copy 3" cx="48" cy="48" r="48" fill="#FCB72B"/>
<g id="001-scooter">
<path id="Path" d="M45.0695 62.3013C44.8518 62.3013 44.6387 62.3898 44.4849 62.5435C44.3312 62.6973 44.2427 62.9108 44.2427 63.1281C44.2427 63.3455 44.3312 63.559 44.4849 63.7128C44.6387 63.8665 44.8518 63.955 45.0695 63.955C45.2869 63.955 45.5001 63.8665 45.6542 63.7128C45.8079 63.559 45.8964 63.3465 45.8964 63.1281C45.8964 62.9108 45.8079 62.6973 45.6542 62.5435C45.5001 62.3898 45.2869 62.3013 45.0695 62.3013Z" fill="black"/>
<path id="Shape" fill-rule="evenodd" clip-rule="evenodd" d="M61.5391 48.4191L59.6121 39.7133C60.1321 39.6429 60.5908 39.3784 60.9134 38.9953C61.2943 39.2334 61.7435 39.3716 62.2248 39.3716H63.8786C64.3353 39.3716 64.7054 39.0015 64.7054 38.5447V35.2372C64.7054 34.7805 64.3353 34.4104 63.8786 34.4104H62.2248C61.7293 34.4104 61.2674 34.557 60.8795 34.8086C60.501 34.3807 59.9483 34.11 59.3333 34.11H54.4522C53.5753 34.11 52.8246 34.66 52.5258 35.433H50.5659C49.3805 35.433 48.416 36.3974 48.416 37.5828C48.416 38.7682 49.3805 39.7327 50.5659 39.7327H54.822V41.3991C54.822 41.8558 55.1922 42.2259 55.6489 42.2259C56.1056 42.2259 56.4758 41.8558 56.4758 41.3991V39.7327H57.9228L59.9984 49.1109L56.0701 56.1077C55.6408 56.8693 54.8314 57.3425 53.957 57.3425H44.1505C43.74 53.8997 40.8046 51.2211 37.2532 51.2211C35.6818 51.2211 34.1993 51.733 32.9658 52.7014L32.9609 52.7053C31.4922 53.8603 30.5691 55.5179 30.354 57.3425H28.6557C28.7636 51.3981 33.6328 46.5958 39.6021 46.5958H45.4677C45.9306 46.5958 46.3075 46.9727 46.3075 47.4359V54.8619C46.3075 55.3186 46.6776 55.6888 47.1344 55.6888H51.5342C53.3291 55.6888 54.9832 54.7127 55.8508 53.142C56.2523 52.4152 56.4651 51.5922 56.4658 50.7624L56.47 48.0153C56.4706 47.5586 56.1008 47.1878 55.6441 47.1872H55.6431C55.187 47.1872 54.8169 47.5567 54.8162 48.0128L54.812 50.7605C54.8117 51.3122 54.6702 51.8593 54.4034 52.3422C53.8265 53.3861 52.7271 54.0347 51.5342 54.0347H47.9612V47.4356C47.9612 47.0121 47.8547 46.6129 47.6676 46.2631C48.4105 45.8338 48.9118 45.0315 48.9118 44.1139C48.9118 42.746 47.7988 41.6332 46.4312 41.6332H43.4131C43.1231 41.6332 42.845 41.6836 42.5862 41.7754V34.5221C42.5862 33.1542 41.4732 32.0415 40.1056 32.0415H34.7713C30.9044 32.0415 27.6886 34.8807 27.0975 38.5835C27.0727 38.6623 27.0591 38.746 27.0591 38.8328C27.0591 38.8355 27.0593 38.838 27.0594 38.8405C27.0596 38.8429 27.0598 38.8453 27.0598 38.8477C27.0203 39.1642 27 39.4863 27 39.8128V44.1142C27 45.3561 27.9176 46.3878 29.1105 46.567L30.9415 48.3981C28.5155 50.6965 27 53.9465 27 57.5444V58.1694C27 58.6261 27.3702 58.9963 27.8269 58.9963H32.4738C32.4632 59.0496 32.4574 59.1051 32.4574 59.1617C32.4574 60.3616 32.9015 61.4595 33.6328 62.3012H27.8269C27.3702 62.3012 27 62.6717 27 63.1281C27 63.5848 27.3702 63.9549 27.8269 63.9549H37.1576L37.1852 63.9559C37.2079 63.9567 37.2305 63.9575 37.2532 63.9575C39.8976 63.9575 42.0491 61.806 42.0491 59.1617C42.0491 59.1051 42.0433 59.0496 42.0326 58.9963H53.957C55.259 58.9963 56.4758 58.3723 57.2384 57.34H58.2855C58.0501 57.913 57.9251 58.5305 57.9251 59.1617C57.9251 60.3616 58.3692 61.4595 59.1005 62.3012H48.3773C47.9205 62.3012 47.5504 62.6717 47.5504 63.1281C47.5504 63.5848 47.9205 63.9549 48.3773 63.9549H62.6253C62.6573 63.9559 62.689 63.9575 62.7209 63.9575C65.3653 63.9575 67.5168 61.806 67.5168 59.1617C67.5168 58.5305 67.3918 57.913 67.1563 57.34H68.509C68.9658 57.34 69.3359 56.9698 69.3359 56.5131C69.3359 52.1484 65.8653 48.579 61.5391 48.4191ZM43.4131 43.2873H46.4312C46.887 43.2873 47.2581 43.6581 47.2581 44.1142C47.2581 44.5699 46.887 44.9411 46.4312 44.9411H43.4131C42.957 44.9411 42.5862 44.5699 42.5862 44.1142C42.5862 43.6581 42.957 43.2873 43.4131 43.2873ZM28.656 39.7111L28.656 39.7111C28.6549 39.745 28.6537 39.7788 28.6537 39.8128V44.1142C28.6537 44.5699 29.0245 44.9411 29.4803 44.9411H29.4809H40.1053C40.5614 44.9411 40.9322 44.5699 40.9322 44.1142V34.5224C40.9322 34.0664 40.5614 33.6956 40.1053 33.6956H34.7713C32.0268 33.6956 29.699 35.5121 28.9264 38.0063H37.7057C38.1625 38.0063 38.5326 38.3765 38.5326 38.8332C38.5326 39.2899 38.1625 39.66 37.7057 39.66H28.6576L28.656 39.7111ZM31.4771 46.5948H33.3692C32.9719 46.8215 32.5885 47.0699 32.2196 47.3374L31.4771 46.5948ZM37.2852 62.3028C39.0029 62.2857 40.3953 60.8836 40.3953 59.1617C40.3953 59.1051 40.4012 59.0496 40.4118 58.9963H34.0946C34.1053 59.0496 34.1111 59.1051 34.1111 59.1617C34.1111 60.8622 35.4693 62.2505 37.1579 62.3012H37.2532C37.2593 62.3012 37.2654 62.3016 37.2715 62.302C37.2761 62.3024 37.2806 62.3027 37.2852 62.3028ZM32.0226 57.3425C32.2274 56.0289 32.9173 54.8422 33.9829 54.0053C33.9855 54.0037 33.9877 54.0015 33.9903 53.9998C34.9289 53.264 36.0572 52.8748 37.2532 52.8748C39.8915 52.8748 42.0849 54.8144 42.4832 57.3425H32.0226ZM63.0517 36.0641H62.2248C61.7687 36.0641 61.3979 36.4352 61.3979 36.891C61.3979 37.3471 61.7687 37.7179 62.2248 37.7179H63.0517V36.0641ZM50.0698 37.5828C50.0698 37.3093 50.2923 37.0867 50.5659 37.0867H52.3876V37.6681C52.3876 37.8089 52.4018 37.9462 52.4286 38.079H50.5659C50.2923 38.079 50.0698 37.8564 50.0698 37.5828ZM54.4522 38.079H55.6489H59.3333C59.5598 38.079 59.7442 37.8949 59.7442 37.6681V36.1746C59.7442 35.9482 59.5598 35.7637 59.3333 35.7637H54.4522C54.2258 35.7637 54.0413 35.9482 54.0413 36.1746V37.6681C54.0413 37.8949 54.2258 38.079 54.4522 38.079ZM65.863 59.1617C65.863 60.8836 64.4706 62.2857 62.7529 62.3028C62.7507 62.3027 62.7484 62.3026 62.7462 62.3025C62.7438 62.3024 62.7415 62.3022 62.7392 62.302C62.7331 62.3016 62.727 62.3012 62.7209 62.3012H62.6256C60.937 62.2505 59.5788 60.8622 59.5788 59.1617C59.5788 58.5047 59.7836 57.8697 60.1609 57.34H65.281C65.6583 57.8697 65.863 58.5047 65.863 59.1617ZM61.3563 50.0703L58.2032 55.6862H67.6292C67.2274 52.5599 64.5762 50.1294 61.3563 50.0703Z" fill="#495567"/>
<path id="Path_2" d="M55.6488 45.5331C56.1055 45.5331 56.4757 45.163 56.4757 44.7063C56.4757 44.2495 56.1055 43.8794 55.6488 43.8794H55.6459C55.1892 43.8794 54.8203 44.2495 54.8203 44.7063C54.8203 45.163 55.1921 45.5331 55.6488 45.5331Z" fill="black"/>
</g>
</g>
</svg>
